<svg width="18" height="18" viewBox="0 0 18 18" fill="none" xmlns="http://www.w3.org/2000/svg">
<path d="M9.8995 0C9.66079 0 9.43186 0.0948265 9.26307 0.263619C9.09428 0.432411 8.99945 0.661343 8.99945 0.900051V8.10046C8.99945 8.33917 9.09428 8.5681 9.26307 8.73689C9.43186 8.90568 9.66079 9.00051 9.8995 9.00051H17.0999C17.3386 9.00051 17.5675 8.90568 17.7363 8.73689C17.9051 8.5681 18 8.33917 18 8.10046C18 5.95208 17.1465 3.8917 15.6274 2.37257C14.1083 0.853439 12.0479 0 9.8995 0ZM10.7996 7.20041V1.86311C12.1462 2.05717 13.3939 2.68195 14.3559 3.64402C15.318 4.60609 15.9428 5.85375 16.1369 7.20041H10.7996Z" fill="white"/>
<path d="M16.9379 10.8546C16.8263 10.8147 16.7078 10.7972 16.5894 10.8032C16.4709 10.8093 16.3548 10.8386 16.2478 10.8896C16.1407 10.9406 16.0448 11.0123 15.9655 11.1005C15.8863 11.1887 15.8252 11.2917 15.7859 11.4036C15.3803 12.5502 14.6908 13.5754 13.7819 14.3835C12.873 15.1916 11.7741 15.7563 10.5879 16.0249C9.40176 16.2935 8.16686 16.2573 6.99846 15.9196C5.83006 15.5819 4.76623 14.9538 3.90623 14.0938C3.04623 13.2338 2.41809 12.1699 2.0804 11.0015C1.74271 9.83313 1.70648 8.59823 1.97509 7.41204C2.2437 6.22585 2.80839 5.12703 3.61649 4.21809C4.42459 3.30916 5.44976 2.61972 6.59636 2.21411C6.82193 2.13534 7.00698 1.97018 7.11079 1.75497C7.2146 1.53976 7.22866 1.29213 7.14989 1.06655C7.07111 0.840968 6.90595 0.65592 6.69074 0.552113C6.47553 0.448306 6.2279 0.434242 6.00232 0.513016C4.56858 1.01954 3.28654 1.88106 2.27585 3.01716C1.26517 4.15325 0.558799 5.52689 0.222663 7.00986C-0.113472 8.49283 -0.0684124 10.0368 0.353638 11.4976C0.775688 12.9585 1.56097 14.2886 2.63619 15.3638C3.71141 16.439 5.04151 17.2243 6.50235 17.6463C7.9632 18.0684 9.50716 18.1135 10.9901 17.7773C12.4731 17.4412 13.8467 16.7348 14.9828 15.7241C16.1189 14.7135 16.9804 13.4314 17.487 11.9977C17.5648 11.7732 17.5508 11.5271 17.4479 11.313C17.3451 11.0989 17.1618 10.9341 16.9379 10.8546Z" fill="white"/>
</svg>
