<svg width="24" height="24" viewBox="0 0 24 24" fill="none" xmlns="http://www.w3.org/2000/svg">
<path d="M22.538 12.6334C23.0273 11.9869 23.2981 11.1948 23.2981 10.3706C23.2981 9.06299 22.5671 7.82528 21.3906 7.13507C21.0877 6.95741 20.7428 6.8639 20.3917 6.86423H13.4081L13.5828 3.28506C13.6236 2.42011 13.3178 1.59886 12.7237 0.972718C12.4321 0.6641 12.0804 0.418552 11.6902 0.251249C11.3 0.0839457 10.8796 -0.0015581 10.455 2.1493e-05C8.94066 2.1493e-05 7.60101 1.01931 7.19912 2.47836L4.69748 11.5355H0.931925C0.416454 11.5355 0 11.952 0 12.4674V23.0681C0 23.5835 0.416454 24 0.931925 24H18.4434C18.7113 24 18.9734 23.9476 19.2151 23.8427C20.6014 23.2515 21.4954 21.8973 21.4954 20.3946C21.4954 20.0277 21.443 19.6665 21.3382 19.3171C21.8274 18.6706 22.0983 17.8784 22.0983 17.0542C22.0983 16.6873 22.0459 16.3262 21.941 15.9767C22.4303 15.3302 22.7011 14.5381 22.7011 13.7139C22.6953 13.3469 22.6429 12.9829 22.538 12.6334ZM2.09683 21.9032V13.6323H4.45577V21.9032H2.09683ZM20.6305 11.6229L19.9927 12.1762L20.3975 12.9159C20.5309 13.1596 20.6 13.4332 20.5985 13.711C20.5985 14.1915 20.3888 14.6487 20.0277 14.9632L19.3899 15.5166L19.7947 16.2563C19.928 16.5 19.9972 16.7736 19.9956 17.0513C19.9956 17.5319 19.7859 17.9891 19.4248 18.3036L18.787 18.8569L19.1918 19.5967C19.3252 19.8403 19.3943 20.1139 19.3928 20.3917C19.3928 21.0441 19.0084 21.6323 18.4143 21.9003H6.31962V13.5391L9.21732 3.04043C9.29204 2.77133 9.45244 2.53393 9.67421 2.36419C9.89598 2.19445 10.167 2.10162 10.4463 2.09976C10.6676 2.09976 10.886 2.16383 11.0608 2.29489C11.3491 2.51039 11.5034 2.83657 11.486 3.18313L11.2064 8.96106H20.3626C20.8809 9.2785 21.2013 9.81436 21.2013 10.3706C21.2013 10.8511 20.9916 11.3054 20.6305 11.6229Z" fill="black"/>
</svg>
