<svg width="20" height="20" viewBox="0 0 20 20" fill="none" xmlns="http://www.w3.org/2000/svg">
<path d="M7.3 17.2H4.6C3.64522 17.2 2.72955 16.8207 2.05442 16.1456C1.37928 15.4704 1 14.5548 1 13.6V5.49999C1 4.54521 1.37928 3.62954 2.05442 2.95441C2.72955 2.27928 3.64522 1.89999 4.6 1.89999H14.5C15.4548 1.89999 16.3705 2.27928 17.0456 2.95441C17.7207 3.62954 18.1 4.54521 18.1 5.49999V8.19999" stroke="white" stroke-width="1.5" stroke-linecap="round" stroke-linejoin="round"/>
<path d="M6.40002 1V2.8" stroke="white" stroke-width="1.5" stroke-linecap="round" stroke-linejoin="round"/>
<path d="M12.7 1V2.8" stroke="white" stroke-width="1.5" stroke-linecap="round" stroke-linejoin="round"/>
<path d="M1 6.39999H18.1" stroke="white" stroke-width="1.5" stroke-linecap="round" stroke-linejoin="round"/>
<path d="M15.85 13.2787L14.5 14.6287" stroke="white" stroke-width="1.5" stroke-linecap="round" stroke-linejoin="round"/>
<path d="M14.5 19C16.9853 19 19 16.9853 19 14.5C19 12.0147 16.9853 10 14.5 10C12.0147 10 10 12.0147 10 14.5C10 16.9853 12.0147 19 14.5 19Z" stroke="white" stroke-width="1.5" stroke-linecap="round" stroke-linejoin="round"/>
</svg>
