<svg width="18" height="18" viewBox="0 0 18 18" fill="none" xmlns="http://www.w3.org/2000/svg">
<path d="M16.8159 11.2879L15.5 10.1629C15.5622 9.78115 15.5944 9.39139 15.5944 9.00163C15.5944 8.61187 15.5622 8.22211 15.5 7.84039L16.8159 6.71531C16.9152 6.63034 16.9862 6.51717 17.0196 6.39084C17.053 6.26452 17.0471 6.13103 17.0027 6.00812L16.9847 5.95588C16.6224 4.94336 16.0799 4.00475 15.3834 3.18538L15.3473 3.14319C15.2628 3.04384 15.1502 2.97243 15.0243 2.93836C14.8984 2.90429 14.7652 2.90916 14.6421 2.95233L13.0087 3.53295C12.406 3.03872 11.733 2.64896 11.0057 2.37572L10.6903 0.668015C10.6665 0.53952 10.6041 0.421306 10.5115 0.329081C10.419 0.236855 10.3005 0.174983 10.1719 0.151685L10.1177 0.141639C9.07095 -0.0472131 7.96998 -0.0472131 6.92325 0.141639L6.86901 0.151685C6.74042 0.174983 6.62197 0.236855 6.52938 0.329081C6.4368 0.421306 6.37447 0.53952 6.35067 0.668015L6.03324 2.38376C5.31176 2.65705 4.63988 3.0466 4.04426 3.53696L2.39883 2.95233C2.27581 2.90881 2.14246 2.90377 2.0165 2.93786C1.89054 2.97195 1.77793 3.04357 1.69365 3.14319L1.65749 3.18538C0.961838 4.00533 0.419449 4.94379 0.056258 5.95588L0.0381763 6.00812C-0.0522317 6.25925 0.0221038 6.54052 0.22502 6.71531L1.55703 7.85244C1.49475 8.23015 1.46461 8.61589 1.46461 8.99962C1.46461 9.38536 1.49475 9.7711 1.55703 10.1468L0.22502 11.2839C0.125763 11.3689 0.0547239 11.4821 0.0213484 11.6084C-0.0120272 11.7347 -0.0061578 11.8682 0.0381763 11.9911L0.056258 12.0434C0.419899 13.0559 0.95833 13.9901 1.65749 14.8139L1.69365 14.8561C1.77814 14.9554 1.89075 15.0268 2.01663 15.0609C2.14252 15.095 2.27577 15.0901 2.39883 15.0469L4.04426 14.4623C4.64296 14.9545 5.31198 15.3443 6.03324 15.6155L6.35067 17.3312C6.37447 17.4597 6.4368 17.5779 6.52938 17.6702C6.62197 17.7624 6.74042 17.8243 6.86901 17.8476L6.92325 17.8576C7.97959 18.0475 9.06133 18.0475 10.1177 17.8576L10.1719 17.8476C10.3005 17.8243 10.419 17.7624 10.5115 17.6702C10.6041 17.5779 10.6665 17.4597 10.6903 17.3312L11.0057 15.6235C11.7327 15.351 12.4095 14.96 13.0087 14.4663L14.6421 15.0469C14.7651 15.0904 14.8985 15.0955 15.0244 15.0614C15.1504 15.0273 15.263 14.9557 15.3473 14.8561L15.3834 14.8139C16.0826 13.9881 16.621 13.0559 16.9847 12.0434L17.0027 11.9911C17.0932 11.744 17.0188 11.4627 16.8159 11.2879ZM14.0735 8.07746C14.1238 8.38083 14.1499 8.69223 14.1499 9.00364C14.1499 9.31504 14.1238 9.62645 14.0735 9.92982L13.9409 10.7355L15.4417 12.0192C15.2142 12.5434 14.927 13.0396 14.5858 13.4979L12.7214 12.8369L12.0906 13.3553C11.6104 13.7491 11.076 14.0585 10.4974 14.2754L9.73193 14.5627L9.37231 16.5115C8.80489 16.5758 8.23202 16.5758 7.6646 16.5115L7.30498 14.5587L6.54555 14.2674C5.97296 14.0504 5.44056 13.741 4.96441 13.3493L4.33356 12.8289L2.45709 13.4959C2.11555 13.0358 1.83027 12.5396 1.60123 12.0172L3.11808 10.7214L2.98749 9.91776C2.93927 9.61841 2.91315 9.30902 2.91315 9.00364C2.91315 8.69625 2.93726 8.38886 2.98749 8.08951L3.11808 7.28589L1.60123 5.99004C1.82826 5.46567 2.11555 4.97144 2.45709 4.51136L4.33356 5.17837L4.96441 4.65802C5.44056 4.26626 5.97296 3.95686 6.54555 3.73988L7.30698 3.45258L7.66661 1.49977C8.23116 1.43548 8.80776 1.43548 9.37432 1.49977L9.73394 3.44857L10.4994 3.73586C11.076 3.95284 11.6124 4.26224 12.0926 4.65602L12.7234 5.17435L14.5878 4.51337C14.9294 4.97345 15.2147 5.46969 15.4437 5.99205L13.9429 7.27584L14.0735 8.07746ZM8.52247 5.26677C6.56966 5.26677 4.98651 6.84992 4.98651 8.80273C4.98651 10.7555 6.56966 12.3387 8.52247 12.3387C10.4753 12.3387 12.0584 10.7555 12.0584 8.80273C12.0584 6.84992 10.4753 5.26677 8.52247 5.26677ZM10.1137 10.3939C9.90495 10.6032 9.65693 10.7692 9.38386 10.8823C9.11078 10.9954 8.81804 11.0533 8.52247 11.0529C7.92176 11.0529 7.35721 10.8178 6.93129 10.3939C6.72199 10.1852 6.55602 9.93719 6.44293 9.66412C6.32984 9.39104 6.27185 9.0983 6.27231 8.80273C6.27231 8.20202 6.50738 7.63747 6.93129 7.21155C7.35721 6.78563 7.92176 6.55258 8.52247 6.55258C9.12318 6.55258 9.68773 6.78563 10.1137 7.21155C10.323 7.42025 10.4889 7.66827 10.602 7.94135C10.7151 8.21442 10.7731 8.50716 10.7726 8.80273C10.7726 9.40344 10.5376 9.96799 10.1137 10.3939Z" fill="white"/>
</svg>
