<svg width="21" height="24" viewBox="0 0 21 24" fill="none" xmlns="http://www.w3.org/2000/svg">
<path d="M4.53233 6.27406C4.78083 6.52048 5.11661 6.65874 5.46657 6.65874C5.81653 6.65874 6.15232 6.52048 6.40081 6.27406C6.52318 6.15278 6.62031 6.00845 6.6866 5.84943C6.75288 5.6904 6.78701 5.51982 6.78701 5.34753C6.78701 5.17524 6.75288 5.00466 6.6866 4.84564C6.62031 4.68661 6.52318 4.54229 6.40081 4.42101C6.15232 4.17459 5.81653 4.03633 5.46657 4.03633C5.11661 4.03633 4.78083 4.17459 4.53233 4.42101C4.01807 4.93355 4.01807 5.76323 4.53233 6.27406ZM19.6533 13.988C19.9737 13.6705 20.228 13.2927 20.4016 12.8763C20.5752 12.46 20.6645 12.0134 20.6645 11.5624C20.6645 11.1113 20.5752 10.6647 20.4016 10.2484C20.228 9.83207 19.9737 9.45425 19.6533 9.13677L11.4937 1.0286C10.8484 0.388352 9.97715 0.0275497 9.06811 0.0240828L3.47296 8.39041e-05C3.01798 -0.00309353 2.5669 0.084005 2.14582 0.256338C1.72474 0.42867 1.34202 0.682813 1.01982 1.00406C0.697618 1.3253 0.442341 1.70726 0.268757 2.12783C0.0951729 2.5484 0.00673103 2.99922 0.00855446 3.4542L0.049696 9.2362C0.0571117 10.1382 0.420628 11.0008 1.06108 11.6361L9.10068 19.6243C9.74973 20.2672 10.6264 20.6279 11.54 20.6279C12.4536 20.6279 13.3302 20.2672 13.9793 19.6243L19.6533 13.988ZM18.4328 10.3487C18.593 10.5075 18.7202 10.6964 18.8069 10.9045C18.8937 11.1127 18.9384 11.336 18.9384 11.5615C18.9384 11.787 18.8937 12.0103 18.8069 12.2185C18.7202 12.4267 18.593 12.6156 18.4328 12.7743L12.7588 18.414C12.0851 19.0826 10.9932 19.0826 10.3195 18.414L2.27987 10.4241C1.9602 10.1063 1.77906 9.67499 1.7759 9.2242L1.73304 3.4422C1.7319 3.21453 1.77598 2.98891 1.86274 2.77841C1.94949 2.56792 2.07719 2.37676 2.23841 2.21601C2.39964 2.05526 2.59118 1.92814 2.80193 1.84201C3.01268 1.75588 3.23844 1.71247 3.4661 1.71428L9.06125 1.73828C9.51607 1.73979 9.95203 1.92021 10.2749 2.24054L18.4345 10.3487H18.4328ZM20.5755 14.9993C20.8058 15.6156 20.8539 16.2851 20.7141 16.928C20.5743 17.5709 20.2524 18.1599 19.787 18.6249L16.4203 21.9916C15.7836 22.6283 15.0277 23.1334 14.1958 23.478C13.3638 23.8226 12.4722 24 11.5717 24C10.6712 24 9.77956 23.8226 8.94763 23.478C8.1157 23.1334 7.3598 22.6283 6.72308 21.9916L0.754234 16.0227C0.271885 15.541 0.000585556 14.8874 -1.52588e-05 14.2057V12.8686L6.72308 19.5917C6.84136 19.71 6.96307 19.8231 7.08649 19.9294L7.93502 20.7796C8.41257 21.2572 8.97952 21.6361 9.60351 21.8946C10.2275 22.1531 10.8963 22.2862 11.5717 22.2862C12.2471 22.2862 12.9159 22.1531 13.5399 21.8946C14.1639 21.6361 14.7308 21.2572 15.2084 20.7796L16.0638 19.9242C16.1864 19.8176 16.3054 19.7066 16.4203 19.5917L19.787 16.225C20.1349 15.8779 20.4039 15.4599 20.5755 14.9993Z" fill="black"/>
</svg>
