<svg width="37" height="24" viewBox="0 0 37 24" fill="none" xmlns="http://www.w3.org/2000/svg">
<path d="M17.258 16.762C18.8939 15.6753 20.1365 14.0908 20.802 12.243C21.4674 10.3952 21.5202 8.38221 20.9526 6.50202C20.3851 4.62183 19.2273 2.97432 17.6506 1.80331C16.0739 0.632294 14.1621 0 12.1981 0C10.2341 0 8.32234 0.632294 6.74566 1.80331C5.16897 2.97432 4.01117 4.62183 3.44361 6.50202C2.87605 8.38221 2.92889 10.3952 3.5943 12.243C4.25971 14.0908 5.50235 15.6753 7.1383 16.762C4.34954 17.7907 1.93924 19.6426 0.226895 22.0723C0.133477 22.2032 0.066866 22.3512 0.0308976 22.508C-0.00507071 22.6647 -0.00968636 22.827 0.0173165 22.9855C0.0443194 23.144 0.102407 23.2956 0.188236 23.4316C0.274066 23.5675 0.385941 23.6852 0.517422 23.7777C0.648903 23.8703 0.797392 23.9359 0.954343 23.9709C1.11129 24.0058 1.2736 24.0094 1.43193 23.9813C1.59026 23.9533 1.74148 23.8942 1.87688 23.8075C2.01229 23.7208 2.1292 23.6081 2.22089 23.476C3.34616 21.8752 4.84008 20.5687 6.57652 19.6668C8.31297 18.7648 10.2409 18.2939 12.1977 18.2939C14.1544 18.2938 16.0824 18.7646 17.8189 19.6664C19.5554 20.5683 21.0494 21.8747 22.1748 23.4754C22.2669 23.6065 22.3839 23.7182 22.5192 23.8041C22.6545 23.8899 22.8054 23.9483 22.9633 23.9758C23.1211 24.0032 23.2828 23.9994 23.4392 23.9643C23.5956 23.9293 23.7435 23.8637 23.8745 23.7715C24.0055 23.6792 24.117 23.562 24.2027 23.4266C24.2884 23.2912 24.3466 23.1403 24.3739 22.9824C24.4012 22.8245 24.3972 22.6628 24.3619 22.5065C24.3267 22.3501 24.261 22.2023 24.1686 22.0714C22.4563 19.6421 20.0463 17.7905 17.258 16.7618V16.762ZM5.49195 9.14935C5.49195 7.82301 5.88525 6.52645 6.62213 5.42364C7.35901 4.32082 8.40636 3.46129 9.63174 2.95372C10.8571 2.44615 12.2055 2.31335 13.5063 2.5721C14.8072 2.83086 16.0021 3.46955 16.94 4.40742C17.8778 5.34528 18.5165 6.5402 18.7753 7.84105C19.0341 9.14191 18.9013 10.4903 18.3937 11.7157C17.8861 12.941 17.0266 13.9884 15.9238 14.7253C14.821 15.4621 13.5244 15.8555 12.1981 15.8555C10.4201 15.8534 8.71555 15.1463 7.45835 13.8891C6.20115 12.6319 5.49397 10.9273 5.49195 9.14935ZM36.2986 23.7705C36.1677 23.8627 36.0199 23.9282 35.8636 23.9633C35.7074 23.9984 35.5458 24.0023 35.388 23.9749C35.2302 23.9476 35.0794 23.8894 34.9442 23.8037C34.8089 23.718 34.6918 23.6065 34.5996 23.4756C33.4729 21.8763 31.9787 20.5709 30.2426 19.6692C28.5065 18.7676 26.5792 18.2959 24.6229 18.294C24.2996 18.294 23.9894 18.1656 23.7608 17.9369C23.5321 17.7083 23.4036 17.3981 23.4036 17.0747C23.4036 16.7514 23.5321 16.4412 23.7608 16.2126C23.9894 15.9839 24.2996 15.8555 24.6229 15.8555C25.5806 15.8544 26.5269 15.6482 27.3982 15.2508C28.2694 14.8535 29.0455 14.2741 29.6742 13.5517C30.3028 12.8293 30.7695 11.9807 31.0427 11.0628C31.316 10.145 31.3895 9.17931 31.2583 8.23071C31.1271 7.28211 30.7943 6.3726 30.2822 5.56338C29.7701 4.75416 29.0907 4.064 28.2896 3.53933C27.4885 3.01466 26.5843 2.66765 25.6378 2.52165C24.6914 2.37565 23.7247 2.43404 22.8027 2.6929C22.4918 2.77911 22.1595 2.73862 21.8784 2.58029C21.5973 2.42196 21.3905 2.15869 21.3031 1.84815C21.2157 1.53761 21.255 1.20511 21.4123 0.923458C21.5696 0.641807 21.8321 0.433966 22.1423 0.345454C24.2398 -0.24633 26.4797 -0.0694359 28.4583 0.844256C30.4368 1.75795 32.024 3.34834 32.9336 5.32879C33.8433 7.30924 34.0156 9.54948 33.4196 11.6458C32.8235 13.742 31.4983 15.5564 29.6827 16.762C32.4711 17.7906 34.8812 19.6423 36.5935 22.0716C36.7797 22.336 36.8532 22.6635 36.7979 22.9821C36.7426 23.3007 36.563 23.5843 36.2986 23.7705Z" fill="black"/>
</svg>
